<svg id="visual" viewBox="0 0 900 600" width="900" height="600" xmlns="http://www.w3.org/2000/svg" xmlns:xlink="http://www.w3.org/1999/xlink" version="1.1"><rect x="0" y="0" width="900" height="600" fill="#FFFFFF"></rect><path d="M0 331L75 331L75 154L150 154L150 282L225 282L225 133L300 133L300 429L375 429L375 426L450 426L450 399L525 399L525 276L600 276L600 166L675 166L675 216L750 216L750 150L825 150L825 307L900 307L900 449L900 0L900 0L825 0L825 0L750 0L750 0L675 0L675 0L600 0L600 0L525 0L525 0L450 0L450 0L375 0L375 0L300 0L300 0L225 0L225 0L150 0L150 0L75 0L75 0L0 0Z" fill="#ffff00"></path><path d="M0 76L75 76L75 277L150 277L150 71L225 71L225 284L300 284L300 258L375 258L375 368L450 368L450 280L525 280L525 278L600 278L600 115L675 115L675 345L750 345L750 95L825 95L825 271L900 271L900 358L900 0L900 0L825 0L825 0L750 0L750 0L675 0L675 0L600 0L600 0L525 0L525 0L450 0L450 0L375 0L375 0L300 0L300 0L225 0L225 0L150 0L150 0L75 0L75 0L0 0Z" fill="#befa5f"></path><path d="M0 130L75 130L75 16L150 16L150 66L225 66L225 158L300 158L300 31L375 31L375 34L450 34L450 104L525 104L525 222L600 222L600 68L675 68L675 59L750 59L750 146L825 146L825 154L900 154L900 69L900 0L900 0L825 0L825 0L750 0L750 0L675 0L675 0L600 0L600 0L525 0L525 0L450 0L450 0L375 0L375 0L300 0L300 0L225 0L225 0L150 0L150 0L75 0L75 0L0 0Z" fill="#90ee90"></path></svg>